<svg width="150" height="150" viewBox="0 0 150 150" fill="none" xmlns="http://www.w3.org/2000/svg">
<path d="M145.713 20.5064C143.506 18.2959 139.926 18.2921 137.719 20.497L69.8987 88.1382L45.4294 61.5621C43.315 59.267 39.7402 59.1182 37.4413 61.2323C35.1441 63.3466 34.997 66.9232 37.1114 69.2204L65.5663 100.123C66.6084 101.256 68.0668 101.913 69.6046 101.945C69.6459 101.947 69.6857 101.947 69.7253 101.947C71.2197 101.947 72.6573 101.353 73.7164 100.298L145.701 28.5018C147.914 26.2972 147.917 22.7168 145.713 20.5064Z" fill="#2FAC75"/>
<path d="M144.347 69.3466C141.224 69.3466 138.693 71.8772 138.693 75C138.693 110.122 110.122 138.693 75 138.693C39.8801 138.693 11.3065 110.122 11.3065 75C11.3065 39.8801 39.8801 11.3065 75 11.3065C78.1225 11.3065 80.6534 8.77588 80.6534 5.65342C80.6534 2.53066 78.1225 0 75 0C33.6445 0 0 33.6445 0 75C0 116.354 33.6445 150 75 150C116.354 150 150 116.354 150 75C150 71.8775 147.469 69.3466 144.347 69.3466Z" fill="#2FAC75"/>
</svg>
