<?xml version="1.0" encoding="iso-8859-1"?>
<!-- Generator: Adobe Illustrator 19.0.0, SVG Export Plug-In . SVG Version: 6.00 Build 0)  -->
<svg version="1.1" id="Layer_1" xmlns="http://www.w3.org/2000/svg" xmlns:xlink="http://www.w3.org/1999/xlink" x="0px" y="0px"
	 viewBox="0 0 512 512" style="enable-background:new 0 0 512 512;" xml:space="preserve">
<g>
	<g>
		<g>
			<path d="M96,42.667H10.667C4.776,42.667,0,47.442,0,53.333v85.333c0,5.891,4.776,10.667,10.667,10.667H96
				c5.891,0,10.667-4.776,10.667-10.667V53.333C106.667,47.442,101.891,42.667,96,42.667z M85.333,128h-64V64h64V128z"/>
			<path d="M96,213.333H10.667C4.776,213.333,0,218.109,0,224v85.333C0,315.224,4.776,320,10.667,320H96
				c5.891,0,10.667-4.776,10.667-10.667V224C106.667,218.109,101.891,213.333,96,213.333z M85.333,298.667h-64v-64h64V298.667z"/>
			<path d="M96,362.667H10.667C4.776,362.667,0,367.442,0,373.333v85.333c0,5.891,4.776,10.667,10.667,10.667H96
				c5.891,0,10.667-4.776,10.667-10.667v-85.333C106.667,367.442,101.891,362.667,96,362.667z M85.333,448h-64v-64h64V448z"/>
			<path d="M170.667,106.667h330.667c5.891,0,10.667-4.776,10.667-10.667s-4.776-10.667-10.667-10.667H170.667
				C164.776,85.333,160,90.109,160,96S164.776,106.667,170.667,106.667z"/>
			<path d="M501.333,245.333H170.667c-5.891,0-10.667,4.776-10.667,10.667c0,5.891,4.776,10.667,10.667,10.667h330.667
				c5.891,0,10.667-4.776,10.667-10.667C512,250.109,507.224,245.333,501.333,245.333z"/>
			<path d="M501.333,405.333H170.667c-5.891,0-10.667,4.776-10.667,10.667s4.776,10.667,10.667,10.667h330.667
				c5.891,0,10.667-4.776,10.667-10.667S507.224,405.333,501.333,405.333z"/>
		</g>
	</g>
</g>
<g>
</g>
<g>
</g>
<g>
</g>
<g>
</g>
<g>
</g>
<g>
</g>
<g>
</g>
<g>
</g>
<g>
</g>
<g>
</g>
<g>
</g>
<g>
</g>
<g>
</g>
<g>
</g>
<g>
</g>
</svg>
